<mxfile host="app.diagrams.net" agent="Mozilla/5.0 (Windows NT 10.0; Win64; x64) AppleWebKit/537.36 (KHTML, like Gecko) Chrome/135.0.0.0 Safari/537.36" version="26.2.14">
  <diagram name="Страница — 1" id="FPkx5iTmyTTH_QAq3jMK">
    <mxGraphModel dx="2253" dy="751" grid="1" gridSize="10" guides="1" tooltips="1" connect="1" arrows="1" fold="1" page="1" pageScale="1" pageWidth="827" pageHeight="1169" math="0" shadow="0">
      <root>
        <mxCell id="0" />
        <mxCell id="1" parent="0" />
        <mxCell id="biUFr0Qo7alXC2_2lR7L-41" style="edgeStyle=orthogonalEdgeStyle;rounded=0;orthogonalLoop=1;jettySize=auto;html=1;exitX=0.5;exitY=0;exitDx=0;exitDy=0;exitPerimeter=0;entryX=0;entryY=0.5;entryDx=0;entryDy=0;" edge="1" parent="1" source="biUFr0Qo7alXC2_2lR7L-1" target="biUFr0Qo7alXC2_2lR7L-4">
          <mxGeometry relative="1" as="geometry" />
        </mxCell>
        <mxCell id="biUFr0Qo7alXC2_2lR7L-43" value="использует" style="edgeLabel;html=1;align=center;verticalAlign=middle;resizable=0;points=[];" vertex="1" connectable="0" parent="biUFr0Qo7alXC2_2lR7L-41">
          <mxGeometry x="0.5282" relative="1" as="geometry">
            <mxPoint as="offset" />
          </mxGeometry>
        </mxCell>
        <mxCell id="biUFr0Qo7alXC2_2lR7L-54" style="edgeStyle=orthogonalEdgeStyle;rounded=0;orthogonalLoop=1;jettySize=auto;html=1;exitX=1;exitY=1;exitDx=0;exitDy=0;exitPerimeter=0;entryX=0;entryY=0.25;entryDx=0;entryDy=0;" edge="1" parent="1" source="biUFr0Qo7alXC2_2lR7L-1" target="biUFr0Qo7alXC2_2lR7L-49">
          <mxGeometry relative="1" as="geometry" />
        </mxCell>
        <mxCell id="biUFr0Qo7alXC2_2lR7L-55" value="использует" style="edgeLabel;html=1;align=center;verticalAlign=middle;resizable=0;points=[];" vertex="1" connectable="0" parent="biUFr0Qo7alXC2_2lR7L-54">
          <mxGeometry x="-0.3935" y="1" relative="1" as="geometry">
            <mxPoint as="offset" />
          </mxGeometry>
        </mxCell>
        <mxCell id="biUFr0Qo7alXC2_2lR7L-1" value="User" style="shape=umlActor;verticalLabelPosition=bottom;verticalAlign=top;html=1;outlineConnect=0;" vertex="1" parent="1">
          <mxGeometry x="20" y="215" width="30" height="60" as="geometry" />
        </mxCell>
        <mxCell id="biUFr0Qo7alXC2_2lR7L-4" value="Identity service" style="rounded=0;whiteSpace=wrap;html=1;verticalAlign=top;fontSize=16;" vertex="1" parent="1">
          <mxGeometry x="120" y="40" width="290" height="130" as="geometry" />
        </mxCell>
        <mxCell id="biUFr0Qo7alXC2_2lR7L-5" value="Регистрация" style="rounded=1;whiteSpace=wrap;html=1;" vertex="1" parent="1">
          <mxGeometry x="130" y="70" width="120" height="40" as="geometry" />
        </mxCell>
        <mxCell id="biUFr0Qo7alXC2_2lR7L-6" value="Авторизация" style="rounded=1;whiteSpace=wrap;html=1;" vertex="1" parent="1">
          <mxGeometry x="280" y="70" width="120" height="40" as="geometry" />
        </mxCell>
        <mxCell id="biUFr0Qo7alXC2_2lR7L-8" value="Привязка Telegram аккаунта" style="rounded=1;whiteSpace=wrap;html=1;" vertex="1" parent="1">
          <mxGeometry x="182.5" y="120" width="165" height="40" as="geometry" />
        </mxCell>
        <mxCell id="biUFr0Qo7alXC2_2lR7L-10" value="Core service" style="rounded=0;whiteSpace=wrap;html=1;verticalAlign=top;fontSize=15;" vertex="1" parent="1">
          <mxGeometry x="120" y="180" width="290" height="150" as="geometry" />
        </mxCell>
        <mxCell id="biUFr0Qo7alXC2_2lR7L-11" value="Управление счетами" style="rounded=1;whiteSpace=wrap;html=1;" vertex="1" parent="1">
          <mxGeometry x="160" y="210" width="220" height="30" as="geometry" />
        </mxCell>
        <mxCell id="biUFr0Qo7alXC2_2lR7L-13" value="Управление категориями" style="rounded=1;whiteSpace=wrap;html=1;" vertex="1" parent="1">
          <mxGeometry x="160" y="250" width="220" height="30" as="geometry" />
        </mxCell>
        <mxCell id="biUFr0Qo7alXC2_2lR7L-14" value="Управление транзакциями" style="rounded=1;whiteSpace=wrap;html=1;" vertex="1" parent="1">
          <mxGeometry x="160" y="290" width="220" height="30" as="geometry" />
        </mxCell>
        <mxCell id="biUFr0Qo7alXC2_2lR7L-15" value="" style="rounded=0;whiteSpace=wrap;html=1;" vertex="1" parent="1">
          <mxGeometry x="480" y="40" width="280" height="160" as="geometry" />
        </mxCell>
        <mxCell id="biUFr0Qo7alXC2_2lR7L-16" value="Просмотр общего баланса" style="rounded=1;whiteSpace=wrap;html=1;" vertex="1" parent="1">
          <mxGeometry x="490" y="50" width="120" height="40" as="geometry" />
        </mxCell>
        <mxCell id="biUFr0Qo7alXC2_2lR7L-17" value="Просмотр счетов с&amp;nbsp; их балансом" style="rounded=1;whiteSpace=wrap;html=1;" vertex="1" parent="1">
          <mxGeometry x="620" y="50" width="120" height="40" as="geometry" />
        </mxCell>
        <mxCell id="biUFr0Qo7alXC2_2lR7L-18" value="Создание/изменение счета" style="rounded=1;whiteSpace=wrap;html=1;" vertex="1" parent="1">
          <mxGeometry x="490" y="100" width="120" height="40" as="geometry" />
        </mxCell>
        <mxCell id="biUFr0Qo7alXC2_2lR7L-19" value="Удаление счета" style="rounded=1;whiteSpace=wrap;html=1;" vertex="1" parent="1">
          <mxGeometry x="620" y="100" width="120" height="40" as="geometry" />
        </mxCell>
        <mxCell id="biUFr0Qo7alXC2_2lR7L-20" value="Архивация счета" style="rounded=1;whiteSpace=wrap;html=1;" vertex="1" parent="1">
          <mxGeometry x="560" y="150" width="120" height="40" as="geometry" />
        </mxCell>
        <mxCell id="biUFr0Qo7alXC2_2lR7L-21" style="edgeStyle=orthogonalEdgeStyle;rounded=0;orthogonalLoop=1;jettySize=auto;html=1;exitX=1;exitY=0.5;exitDx=0;exitDy=0;entryX=0;entryY=0.206;entryDx=0;entryDy=0;entryPerimeter=0;" edge="1" parent="1" source="biUFr0Qo7alXC2_2lR7L-11" target="biUFr0Qo7alXC2_2lR7L-15">
          <mxGeometry relative="1" as="geometry" />
        </mxCell>
        <mxCell id="biUFr0Qo7alXC2_2lR7L-22" value="включая" style="edgeLabel;html=1;align=center;verticalAlign=middle;resizable=0;points=[];" vertex="1" connectable="0" parent="biUFr0Qo7alXC2_2lR7L-21">
          <mxGeometry x="0.0238" y="2" relative="1" as="geometry">
            <mxPoint x="12" y="-6" as="offset" />
          </mxGeometry>
        </mxCell>
        <mxCell id="biUFr0Qo7alXC2_2lR7L-23" value="" style="rounded=0;whiteSpace=wrap;html=1;" vertex="1" parent="1">
          <mxGeometry x="480" y="215" width="280" height="115" as="geometry" />
        </mxCell>
        <mxCell id="biUFr0Qo7alXC2_2lR7L-24" value="Просмотр категорий" style="rounded=1;whiteSpace=wrap;html=1;" vertex="1" parent="1">
          <mxGeometry x="490" y="225" width="120" height="40" as="geometry" />
        </mxCell>
        <mxCell id="biUFr0Qo7alXC2_2lR7L-25" value="Создание/изменение категории" style="rounded=1;whiteSpace=wrap;html=1;" vertex="1" parent="1">
          <mxGeometry x="620" y="225" width="120" height="40" as="geometry" />
        </mxCell>
        <mxCell id="biUFr0Qo7alXC2_2lR7L-26" value="Удаление категории" style="rounded=1;whiteSpace=wrap;html=1;" vertex="1" parent="1">
          <mxGeometry x="560" y="275" width="120" height="40" as="geometry" />
        </mxCell>
        <mxCell id="biUFr0Qo7alXC2_2lR7L-29" style="edgeStyle=orthogonalEdgeStyle;rounded=0;orthogonalLoop=1;jettySize=auto;html=1;exitX=1;exitY=0.5;exitDx=0;exitDy=0;entryX=-0.007;entryY=0.435;entryDx=0;entryDy=0;entryPerimeter=0;" edge="1" parent="1" source="biUFr0Qo7alXC2_2lR7L-13" target="biUFr0Qo7alXC2_2lR7L-23">
          <mxGeometry relative="1" as="geometry" />
        </mxCell>
        <mxCell id="biUFr0Qo7alXC2_2lR7L-30" value="включая" style="edgeLabel;html=1;align=center;verticalAlign=middle;resizable=0;points=[];" vertex="1" connectable="0" parent="biUFr0Qo7alXC2_2lR7L-29">
          <mxGeometry x="0.1424" relative="1" as="geometry">
            <mxPoint as="offset" />
          </mxGeometry>
        </mxCell>
        <mxCell id="biUFr0Qo7alXC2_2lR7L-32" value="" style="rounded=0;whiteSpace=wrap;html=1;" vertex="1" parent="1">
          <mxGeometry x="480" y="340" width="280" height="160" as="geometry" />
        </mxCell>
        <mxCell id="biUFr0Qo7alXC2_2lR7L-38" style="edgeStyle=orthogonalEdgeStyle;rounded=0;orthogonalLoop=1;jettySize=auto;html=1;exitX=1;exitY=0.5;exitDx=0;exitDy=0;entryX=0;entryY=0.5;entryDx=0;entryDy=0;" edge="1" parent="1" source="biUFr0Qo7alXC2_2lR7L-33" target="biUFr0Qo7alXC2_2lR7L-34">
          <mxGeometry relative="1" as="geometry" />
        </mxCell>
        <mxCell id="biUFr0Qo7alXC2_2lR7L-33" value="Просмотр транзакций" style="rounded=1;whiteSpace=wrap;html=1;" vertex="1" parent="1">
          <mxGeometry x="490" y="350" width="120" height="40" as="geometry" />
        </mxCell>
        <mxCell id="biUFr0Qo7alXC2_2lR7L-34" value="Фильтрация транзакций" style="rounded=1;whiteSpace=wrap;html=1;" vertex="1" parent="1">
          <mxGeometry x="640" y="350" width="100" height="40" as="geometry" />
        </mxCell>
        <mxCell id="biUFr0Qo7alXC2_2lR7L-35" value="Добавление/изменение операции" style="rounded=1;whiteSpace=wrap;html=1;" vertex="1" parent="1">
          <mxGeometry x="490" y="400" width="120" height="40" as="geometry" />
        </mxCell>
        <mxCell id="biUFr0Qo7alXC2_2lR7L-36" value="Удаление операции" style="rounded=1;whiteSpace=wrap;html=1;" vertex="1" parent="1">
          <mxGeometry x="620" y="400" width="120" height="40" as="geometry" />
        </mxCell>
        <mxCell id="biUFr0Qo7alXC2_2lR7L-37" value="Создание/изменение перевода" style="rounded=1;whiteSpace=wrap;html=1;" vertex="1" parent="1">
          <mxGeometry x="490" y="450" width="120" height="40" as="geometry" />
        </mxCell>
        <mxCell id="biUFr0Qo7alXC2_2lR7L-39" value="Удаление перевода" style="rounded=1;whiteSpace=wrap;html=1;" vertex="1" parent="1">
          <mxGeometry x="620" y="450" width="120" height="40" as="geometry" />
        </mxCell>
        <mxCell id="biUFr0Qo7alXC2_2lR7L-42" style="edgeStyle=orthogonalEdgeStyle;rounded=0;orthogonalLoop=1;jettySize=auto;html=1;exitX=1;exitY=0.3333333333333333;exitDx=0;exitDy=0;exitPerimeter=0;entryX=-0.003;entryY=0.433;entryDx=0;entryDy=0;entryPerimeter=0;" edge="1" parent="1" source="biUFr0Qo7alXC2_2lR7L-1" target="biUFr0Qo7alXC2_2lR7L-10">
          <mxGeometry relative="1" as="geometry" />
        </mxCell>
        <mxCell id="biUFr0Qo7alXC2_2lR7L-45" value="использует" style="edgeLabel;html=1;align=center;verticalAlign=middle;resizable=0;points=[];" vertex="1" connectable="0" parent="biUFr0Qo7alXC2_2lR7L-42">
          <mxGeometry x="-0.3819" y="-1" relative="1" as="geometry">
            <mxPoint x="9" y="-1" as="offset" />
          </mxGeometry>
        </mxCell>
        <mxCell id="biUFr0Qo7alXC2_2lR7L-47" style="edgeStyle=orthogonalEdgeStyle;rounded=0;orthogonalLoop=1;jettySize=auto;html=1;exitX=1;exitY=0.5;exitDx=0;exitDy=0;entryX=0;entryY=0.625;entryDx=0;entryDy=0;entryPerimeter=0;" edge="1" parent="1" source="biUFr0Qo7alXC2_2lR7L-14" target="biUFr0Qo7alXC2_2lR7L-32">
          <mxGeometry relative="1" as="geometry" />
        </mxCell>
        <mxCell id="biUFr0Qo7alXC2_2lR7L-48" value="включая" style="edgeLabel;html=1;align=center;verticalAlign=middle;resizable=0;points=[];" vertex="1" connectable="0" parent="biUFr0Qo7alXC2_2lR7L-47">
          <mxGeometry x="-0.0298" y="3" relative="1" as="geometry">
            <mxPoint as="offset" />
          </mxGeometry>
        </mxCell>
        <mxCell id="biUFr0Qo7alXC2_2lR7L-49" value="Report service" style="rounded=0;whiteSpace=wrap;html=1;verticalAlign=top;fontSize=16;" vertex="1" parent="1">
          <mxGeometry x="120" y="340" width="290" height="80" as="geometry" />
        </mxCell>
        <mxCell id="biUFr0Qo7alXC2_2lR7L-50" value="Формирование отчетов" style="rounded=1;whiteSpace=wrap;html=1;" vertex="1" parent="1">
          <mxGeometry x="160" y="370" width="220" height="30" as="geometry" />
        </mxCell>
        <mxCell id="biUFr0Qo7alXC2_2lR7L-51" value="Notification service" style="rounded=0;whiteSpace=wrap;html=1;verticalAlign=top;fontSize=16;" vertex="1" parent="1">
          <mxGeometry x="120" y="430" width="290" height="120" as="geometry" />
        </mxCell>
        <mxCell id="biUFr0Qo7alXC2_2lR7L-52" value="Подписка на еженедельную статистику" style="rounded=1;whiteSpace=wrap;html=1;" vertex="1" parent="1">
          <mxGeometry x="160" y="460" width="220" height="40" as="geometry" />
        </mxCell>
        <mxCell id="biUFr0Qo7alXC2_2lR7L-53" value="Уведомления о предстоящих платежах" style="rounded=1;whiteSpace=wrap;html=1;" vertex="1" parent="1">
          <mxGeometry x="160" y="510" width="220" height="30" as="geometry" />
        </mxCell>
        <mxCell id="biUFr0Qo7alXC2_2lR7L-56" style="edgeStyle=orthogonalEdgeStyle;rounded=0;orthogonalLoop=1;jettySize=auto;html=1;exitX=0;exitY=1;exitDx=0;exitDy=0;exitPerimeter=0;entryX=0;entryY=0.167;entryDx=0;entryDy=0;entryPerimeter=0;" edge="1" parent="1" source="biUFr0Qo7alXC2_2lR7L-1" target="biUFr0Qo7alXC2_2lR7L-51">
          <mxGeometry relative="1" as="geometry" />
        </mxCell>
        <mxCell id="biUFr0Qo7alXC2_2lR7L-57" value="использует" style="edgeLabel;html=1;align=center;verticalAlign=middle;resizable=0;points=[];" vertex="1" connectable="0" parent="biUFr0Qo7alXC2_2lR7L-56">
          <mxGeometry x="-0.2073" relative="1" as="geometry">
            <mxPoint as="offset" />
          </mxGeometry>
        </mxCell>
      </root>
    </mxGraphModel>
  </diagram>
</mxfile>
